<svg id="Layer_1" data-name="Layer 1" xmlns="http://www.w3.org/2000/svg" viewBox="0 0 600 600"><defs><style>.cls-1{fill:#000111;}.cls-2{fill:#fff;}</style></defs><title>rfTile_1</title><rect class="cls-1" width="600" height="600"/><g id="Layer_2" data-name="Layer 2"><g id="Layer_1-2" data-name="Layer 1-2"><path class="cls-2" d="M62.38,253a16.46,16.46,0,0,1,6.28,1.12,14.35,14.35,0,0,1,4.7,3.06,13.26,13.26,0,0,1,3,4.5,14.44,14.44,0,0,1,1,5.51A15.47,15.47,0,0,1,75.5,275a12.06,12.06,0,0,1-6.23,5v.14a8.75,8.75,0,0,1,3.46,1.76A9.85,9.85,0,0,1,75,284.75a12.87,12.87,0,0,1,1.26,3.57,31.76,31.76,0,0,1,.54,3.88c0,.82.1,1.78.14,2.88s.14,2.24.26,3.39a23,23,0,0,0,.57,3.28,7.54,7.54,0,0,0,1.19,2.63H67.66a19.74,19.74,0,0,1-1.16-5.83c-.14-2.26-.36-4.42-.64-6.48-.39-2.69-1.2-4.66-2.45-5.9s-3.29-1.88-6.12-1.88H46v20.09H34.66V253Zm-4,23.26c2.59,0,4.54-.58,5.83-1.73s1.94-3,1.94-5.61-.64-4.31-1.94-5.44-3.27-1.7-5.86-1.7H46v14.48Z"/><path class="cls-2" d="M84.34,268.2a25.62,25.62,0,0,1,5-8.6,22.67,22.67,0,0,1,8-5.76,27.92,27.92,0,0,1,21.2,0,22.71,22.71,0,0,1,7.92,5.76,25.62,25.62,0,0,1,5,8.6,32.12,32.12,0,0,1,1.7,10.69,31.14,31.14,0,0,1-1.73,10.48,25,25,0,0,1-5,8.46,22.92,22.92,0,0,1-7.92,5.65,26.16,26.16,0,0,1-10.66,2,26.54,26.54,0,0,1-10.59-2,22.68,22.68,0,0,1-8-5.65,25,25,0,0,1-5-8.46,31.1,31.1,0,0,1-1.6-10.48A32.1,32.1,0,0,1,84.34,268.2Zm10.32,17a17.23,17.23,0,0,0,2.42,5.56,12.53,12.53,0,0,0,4.32,3.93,15,15,0,0,0,13,0,12.46,12.46,0,0,0,4.3-3.93,17,17,0,0,0,2.42-5.51,26.74,26.74,0,0,0,.75-6.3,28.87,28.87,0,0,0-.75-6.55,17.43,17.43,0,0,0-2.42-5.7,12.1,12.1,0,0,0-4.32-4,15,15,0,0,0-12.94.06,12.18,12.18,0,0,0-4.32,4,17.39,17.39,0,0,0-2.42,5.59,27.78,27.78,0,0,0-.75,6.55A26.22,26.22,0,0,0,94.66,285.19Z"/><path class="cls-2" d="M169.51,304a18.88,18.88,0,0,1-7.41,1.54,26.31,26.31,0,0,1-10.62-2,22.68,22.68,0,0,1-8-5.65,25,25,0,0,1-5-8.46,30.89,30.89,0,0,1-1.73-10.48,31.85,31.85,0,0,1,1.73-10.69,25.62,25.62,0,0,1,5-8.6,22.55,22.55,0,0,1,8-5.76,26,26,0,0,1,10.62-2.09,25.28,25.28,0,0,1,7.67,1.19,21.49,21.49,0,0,1,6.69,3.49,18.85,18.85,0,0,1,7.31,13.46H173a10.84,10.84,0,0,0-3.89-6.48,11.27,11.27,0,0,0-7-2.16,13.17,13.17,0,0,0-6.42,1.5,12.1,12.1,0,0,0-4.32,4,17.15,17.15,0,0,0-2.41,5.65,27.73,27.73,0,0,0-.76,6.55,25.74,25.74,0,0,0,.76,6.3,16.81,16.81,0,0,0,2.37,5.5,12.41,12.41,0,0,0,4.36,3.88,13.26,13.26,0,0,0,6.48,1.47q5.61,0,8.68-2.84c2.05-1.89,3.23-4.64,3.56-8.25H163v-8.42h21.6v27.79h-7.2l-1.15-5.83A17.06,17.06,0,0,1,169.51,304Z"/><path class="cls-2" d="M217.54,253l19.22,51.41H225l-3.89-11.45H201.91l-4,11.45h-11.4L206,253Zm.65,31.54-6.48-18.86h-.15l-6.69,18.86Z"/><path class="cls-2" d="M250.66,253l21.45,34.49h.15V253h10.58v51.41h-11.3L250.15,270H250v34.41H239.43V253Z"/><path class="cls-2" d="M290.55,253H322.8v2.78H293.71V276.3h26.21V279H293.71v25.34h-3.16Z"/><path class="cls-2" d="M327.55,253h3.17v51.41h-3.17Z"/><path class="cls-2" d="M339.79,253h4l32.48,47.16h.14V253h3.17v51.41h-3.75l-32.72-47.52H343v47.52h-3.17Z"/><path class="cls-2" d="M403.87,253h3.46l20.33,51.41h-3.38l-6.48-16.49H393.15l-6.56,16.49h-3.38Zm12.89,32.19-11-29.09h-.14l-11.47,29.09Z"/><path class="cls-2" d="M431.3,253h4l32.48,47.16h.14V253h3.17v51.41h-3.75l-32.68-47.52h-.15v47.52h-3.17Z"/><path class="cls-2" d="M478.18,278.68a32.87,32.87,0,0,1,1.65-10.55,25.51,25.51,0,0,1,4.83-8.57,22.26,22.26,0,0,1,7.7-5.72,24.67,24.67,0,0,1,10.3-2.09,23.22,23.22,0,0,1,7.84,1.19,19.79,19.79,0,0,1,5.58,2.95,17.42,17.42,0,0,1,3.71,3.86,21.35,21.35,0,0,1,2.2,3.93,19.34,19.34,0,0,1,1,3.16c.19.89.29,1.38.29,1.48h-3.17a15.38,15.38,0,0,0-2.09-5.8,15.81,15.81,0,0,0-4-4.35,17.76,17.76,0,0,0-5.29-2.74,21.42,21.42,0,0,0-15.15,1,20.32,20.32,0,0,0-6.7,5.22,22.94,22.94,0,0,0-4.18,7.67,31.14,31.14,0,0,0,0,18.72,23,23,0,0,0,4.26,7.71,19.84,19.84,0,0,0,15.7,7.12,16.29,16.29,0,0,0,7-1.55,19.18,19.18,0,0,0,5.72-4.1,20.37,20.37,0,0,0,3.92-5.91,20,20,0,0,0,1.7-6.94h3.16a25.33,25.33,0,0,1-2.26,8.49,24.14,24.14,0,0,1-4.68,6.73,20.6,20.6,0,0,1-6.56,4.43,20.15,20.15,0,0,1-8,1.59,24.66,24.66,0,0,1-10.34-2.09,22.07,22.07,0,0,1-7.66-5.77,25.29,25.29,0,0,1-4.79-8.56A32.94,32.94,0,0,1,478.18,278.68Z"/><path class="cls-2" d="M530.81,253h34.56v2.78H534V276.3h29.51V279H534v22.61h31.75v2.73H530.81Z"/></g></g></svg>