<svg id="Layer_1" data-name="Layer 1" xmlns="http://www.w3.org/2000/svg" viewBox="0 0 600 600"><defs><style>.cls-1{fill:#000111;}.cls-2{fill:#fff;}</style></defs><title>rfTile</title><rect class="cls-1" x="0.5" y="0.5" width="599" height="599"/><path d="M599,1V599H1V1H599m1-1H0V600H600V0Z"/><g id="Layer_2" data-name="Layer 2"><g id="Layer_1-2" data-name="Layer 1-2"><path class="cls-2" d="M61.26,260.81a16.43,16.43,0,0,1,6.28,1.12,13.94,13.94,0,0,1,4.7,3.06,13.16,13.16,0,0,1,3,4.5A14.25,14.25,0,0,1,76.29,275a15.5,15.5,0,0,1-1.91,7.85,12.07,12.07,0,0,1-6.23,5V288a8.68,8.68,0,0,1,3.46,1.76,9.85,9.85,0,0,1,2.25,2.84,12.55,12.55,0,0,1,1.26,3.57,31.49,31.49,0,0,1,.54,3.88c0,.82.1,1.78.14,2.88s.14,2.24.26,3.39a23,23,0,0,0,.57,3.28,7.82,7.82,0,0,0,1.19,2.63H66.54a19.74,19.74,0,0,1-1.16-5.83c-.14-2.26-.36-4.42-.64-6.48-.39-2.69-1.2-4.66-2.45-5.9s-3.29-1.88-6.12-1.88H44.84v20.09H33.54V260.81Zm-4,23.26q3.9,0,5.83-1.73c1.3-1.15,1.94-3,1.94-5.61s-.64-4.31-1.94-5.44-3.27-1.7-5.86-1.7H44.84v14.48Z"/><path class="cls-2" d="M83.22,276a25.62,25.62,0,0,1,5-8.6,22.64,22.64,0,0,1,8-5.76,27.92,27.92,0,0,1,21.2,0,22.59,22.59,0,0,1,7.92,5.76,25.62,25.62,0,0,1,5,8.6,32.08,32.08,0,0,1,1.7,10.69,30.94,30.94,0,0,1-1.73,10.48,25.1,25.1,0,0,1-5,8.46,22.86,22.86,0,0,1-7.92,5.65,28.56,28.56,0,0,1-21.25,0,22.87,22.87,0,0,1-8-5.65,25.1,25.1,0,0,1-5-8.46,31.1,31.1,0,0,1-1.6-10.48A32.06,32.06,0,0,1,83.22,276Zm10.32,17A17.23,17.23,0,0,0,96,298.59a12.63,12.63,0,0,0,4.32,3.93,15,15,0,0,0,13,0,12.38,12.38,0,0,0,4.3-3.93,17,17,0,0,0,2.42-5.51,26.28,26.28,0,0,0,.75-6.3,27.72,27.72,0,0,0-.75-6.55,17.43,17.43,0,0,0-2.42-5.7,12,12,0,0,0-4.32-4,15,15,0,0,0-12.94.06,12.27,12.27,0,0,0-4.32,4,17.74,17.74,0,0,0-2.42,5.59,28.8,28.8,0,0,0-.75,6.55A26.8,26.8,0,0,0,93.54,293Z"/><path class="cls-2" d="M168.39,311.83a19.06,19.06,0,0,1-7.41,1.54,26.34,26.34,0,0,1-10.62-2.05,22.87,22.87,0,0,1-8-5.65,25.1,25.1,0,0,1-5-8.46,30.94,30.94,0,0,1-1.73-10.48A32.1,32.1,0,0,1,137.36,276a25.62,25.62,0,0,1,5-8.6,22.55,22.55,0,0,1,8-5.76A25.85,25.85,0,0,1,161,259.59a24.68,24.68,0,0,1,7.67,1.19,21.49,21.49,0,0,1,6.69,3.49,18.79,18.79,0,0,1,7.31,13.46h-10.8a10.75,10.75,0,0,0-3.89-6.48,11.27,11.27,0,0,0-7-2.16,13.17,13.17,0,0,0-6.42,1.5,12,12,0,0,0-4.32,4,17.27,17.27,0,0,0-2.41,5.65,27.73,27.73,0,0,0-.76,6.55,26.23,26.23,0,0,0,.76,6.3,17,17,0,0,0,2.37,5.5,12.5,12.5,0,0,0,4.36,3.88,13.26,13.26,0,0,0,6.48,1.47c3.74,0,6.64-.95,8.68-2.84s3.24-4.65,3.56-8.25H161.84v-8.42h21.6v27.79h-7.2l-1.15-5.83A17,17,0,0,1,168.39,311.83Z"/><path class="cls-2" d="M216.42,260.81l19.22,51.41H223.91L220,300.77H200.79l-4,11.45h-11.4l19.44-51.41Zm.65,31.54-6.48-18.86h-.15l-6.69,18.86Z"/><path class="cls-2" d="M249.54,260.81,271,295.3h.15V260.81h10.58v51.41h-11.3L249,277.81h-.14v34.41H238.31V260.81Z"/><path class="cls-2" d="M289.43,260.81h32.25v2.78H292.59v20.55H318.8v2.74H292.59v25.34h-3.16Z"/><path class="cls-2" d="M326.43,260.81h3.17v51.41h-3.17Z"/><path class="cls-2" d="M338.67,260.81h4L375.15,308h.14V260.81h3.17v51.41h-3.75L342,264.7h-.15v47.52h-3.17Z"/><path class="cls-2" d="M402.75,260.81h3.46l20.33,51.41h-3.38l-6.48-16.49H392l-6.56,16.49h-3.38ZM415.64,293l-11-29.09h-.14L393,293Z"/><path class="cls-2" d="M430.18,260.81h4L466.66,308h.14V260.81H470v51.41h-3.75L433.54,264.7h-.15v47.52h-3.17Z"/><path class="cls-2" d="M477.06,286.52A33.11,33.11,0,0,1,478.71,276a25.42,25.42,0,0,1,4.83-8.57,22.14,22.14,0,0,1,7.7-5.72,24.7,24.7,0,0,1,10.3-2.09,22.94,22.94,0,0,1,7.84,1.19,19.66,19.66,0,0,1,5.58,3,17.21,17.21,0,0,1,3.71,3.86,21,21,0,0,1,2.2,3.93,19.34,19.34,0,0,1,1,3.16c.19.89.29,1.38.29,1.48H519a15,15,0,0,0-2.09-5.8,15.66,15.66,0,0,0-4-4.35,17.3,17.3,0,0,0-5.29-2.74,21.37,21.37,0,0,0-15.15,1,20.17,20.17,0,0,0-6.7,5.22,22.84,22.84,0,0,0-4.18,7.67,31.14,31.14,0,0,0,0,18.72,23.15,23.15,0,0,0,4.26,7.71,19.87,19.87,0,0,0,15.7,7.12,16.29,16.29,0,0,0,7-1.55,19.53,19.53,0,0,0,5.72-4.1,20.3,20.3,0,0,0,3.92-5.91,19.92,19.92,0,0,0,1.7-6.94H523a25.1,25.1,0,0,1-2.26,8.49,23.93,23.93,0,0,1-4.68,6.73,20.34,20.34,0,0,1-14.56,6,24.85,24.85,0,0,1-10.34-2.09,22.28,22.28,0,0,1-7.66-5.77,25.56,25.56,0,0,1-4.79-8.56A32.94,32.94,0,0,1,477.06,286.52Z"/><path class="cls-2" d="M529.69,260.81h34.56v2.78H532.86v20.55h29.51v2.74H532.86v22.61h31.75v2.73H529.69Z"/></g></g></svg>