<svg id="Layer_1" data-name="Layer 1" xmlns="http://www.w3.org/2000/svg" viewBox="0 0 600 600"><defs><style>.cls-1{fill:#243d79;}.cls-2{fill:#fff;}.cls-3{fill:#eca024;}</style></defs><title>tbhTile</title><rect class="cls-1" width="600" height="600"/><g id="Layer_2" data-name="Layer 2"><g id="Layer_1-2" data-name="Layer 1-2"><path class="cls-2" d="M79.52,245.91v12.67H75.25a1.6,1.6,0,0,1-1.73-1.39c0-.42-.19-1.46-.37-3.09H62.23v38l2.19.4,1.09.19.47.08a2.14,2.14,0,0,1,1.86,2.33v4.38H46.65v-4.38a2.14,2.14,0,0,1,1.85-2.33l.47-.08,1.1-.19,2.19-.4V254.07H41.34c-.18,1.65-.3,2.69-.38,3.11a1.59,1.59,0,0,1-1.73,1.39H35V245.91Z"/><path class="cls-2" d="M142.63,283.61a25.83,25.83,0,0,1-5.46,8.68,25,25,0,0,1-8.61,5.73,31,31,0,0,1-22.18,0,25.17,25.17,0,0,1-8.63-5.73,25.51,25.51,0,0,1-5.53-8.68,31.22,31.22,0,0,1,0-21.83,25.71,25.71,0,0,1,5.53-8.69,25.16,25.16,0,0,1,8.6-5.72,30.74,30.74,0,0,1,22.18,0,25.47,25.47,0,0,1,8.64,5.74,25.85,25.85,0,0,1,5.52,8.67,30.93,30.93,0,0,1-.06,21.83Zm-9.43-18.82a16.66,16.66,0,0,0-3.33-6,14.52,14.52,0,0,0-5.34-3.75,19.85,19.85,0,0,0-14.13,0,14.67,14.67,0,0,0-5.35,3.75,16.87,16.87,0,0,0-3.39,6,27.07,27.07,0,0,0,0,15.81,17.07,17.07,0,0,0,3.39,5.94,14.92,14.92,0,0,0,5.36,3.72,20,20,0,0,0,14.13,0,14.81,14.81,0,0,0,5.33-3.72,16.82,16.82,0,0,0,3.35-5.94,25,25,0,0,0,1.16-7.92A24.6,24.6,0,0,0,133.2,264.79Z"/><path class="cls-2" d="M195.75,286.67v12.81H156.94V295.1a2.16,2.16,0,0,1,1.86-2.33l.46-.07,1.11-.2,2.19-.4V253.25l-2.19-.39-1.11-.25h-.46a2.16,2.16,0,0,1-1.86-2.32v-4.38h21.19v4.38a2.13,2.13,0,0,1-1.86,2.32h-.45l-1.11.19-2.19.39v38h17.21c.16-1.88.27-2.92.33-3.21a1.55,1.55,0,0,1,1.72-1.37Z"/><path class="cls-2" d="M261.54,272.68a29.08,29.08,0,0,1-2,10.84,25.24,25.24,0,0,1-5.52,8.51,24.81,24.81,0,0,1-8.56,5.52,30.36,30.36,0,0,1-11.08,2H209.14v-4.38A2.15,2.15,0,0,1,211,292.8l.47-.08,1.11-.19,2.19-.4V253.25l-2.19-.39-1.11-.25H211a2.14,2.14,0,0,1-1.85-2.32v-4.38h25.27a29.72,29.72,0,0,1,11.08,2,24.34,24.34,0,0,1,14.08,14A29,29,0,0,1,261.54,272.68Zm-10.22,0a24,24,0,0,0-1.2-7.89,16.27,16.27,0,0,0-3.36-5.93,14.29,14.29,0,0,0-5.33-3.72,17.72,17.72,0,0,0-7.05-1.3h-9.6v37.71h9.6a18.29,18.29,0,0,0,7.05-1.29,14.55,14.55,0,0,0,5.33-3.73,16.41,16.41,0,0,0,3.36-5.93,24.2,24.2,0,0,0,1.23-7.92Z"/><path class="cls-3" d="M319.78,283.74a15.15,15.15,0,0,1-1.3,6.29,13.82,13.82,0,0,1-3.77,5,18.33,18.33,0,0,1-6.11,3.27,26.91,26.91,0,0,1-8.31,1.19H274.42V295.1a2.14,2.14,0,0,1,1.85-2.33l.47-.07,1.11-.2,2.17-.4V253.25l-2.17-.39-1.08-.25h-.47a2.13,2.13,0,0,1-1.88-2.35v-4.38h24.1a35.75,35.75,0,0,1,9,1,17.3,17.3,0,0,1,6.12,2.92,11.07,11.07,0,0,1,3.5,4.48,14.88,14.88,0,0,1,1.11,5.93,12,12,0,0,1-.55,3.61A10.67,10.67,0,0,1,316,267a12.43,12.43,0,0,1-2.92,2.73,18.35,18.35,0,0,1-4.27,2.08Q319.79,274.29,319.78,283.74ZM290,269.14h8a13.36,13.36,0,0,0,7.7-1.93,6.72,6.72,0,0,0,2.63-5.84,6.93,6.93,0,0,0-2.38-6,12.33,12.33,0,0,0-7.4-1.78H290Zm19.9,14.42a8.45,8.45,0,0,0-.55-3.14,5.89,5.89,0,0,0-1.74-2.36,8.19,8.19,0,0,0-3-1.46,16.69,16.69,0,0,0-4.5-.53H290v15.62h10.12a14.1,14.1,0,0,0,4.65-.65,8.25,8.25,0,0,0,3-1.78,6.54,6.54,0,0,0,1.67-2.6,9.6,9.6,0,0,0,.46-3.14Z"/><path class="cls-3" d="M382,245.91v4.38a2.13,2.13,0,0,1-1.86,2.32l-.45.09-1.11.19-2.18.39L361.3,278.69v13.49l2.18.38,1.11.2.47.07a2.15,2.15,0,0,1,1.85,2.32v4.38H345.72v-4.38a2.14,2.14,0,0,1,1.86-2.32l.47-.07,1.09-.2,2.19-.38V278.66l-15.14-25.41-2.19-.39-1.11-.25h-.47a2.14,2.14,0,0,1-1.84-2.32v-4.38h20v4.38a2.13,2.13,0,0,1-1.86,2.32h-.32l-.71.19-1.06.25,7.1,12.93c.57,1.07,1.05,2.06,1.46,3s.8,1.88,1.15,2.78c.32-.93.69-1.88,1.1-2.83a28.38,28.38,0,0,1,1.46-2.92l7-12.93-1-.27-.76-.23h-.32a2.13,2.13,0,0,1-1.84-2.35v-4.38h20Z"/><path class="cls-2" d="M449.62,252.61l-1.11.19-2.19.39v38.94l2.19.4,1.11.2.47.07a2.14,2.14,0,0,1,1.84,2.33v4.38H430.71v-4.38a2.16,2.16,0,0,1,1.86-2.33l.46-.07,1.11-.2,2.19-.38V276.09H411.21v16.06l2.17.39,1.11.21.47.07a2.12,2.12,0,0,1,1.85,2.32v4.38H395.6v-4.38a2.14,2.14,0,0,1,1.87-2.32l.47-.07,1.09-.21,2.19-.39v-38.9l-2.19-.39-1.15-.25h-.47a2.14,2.14,0,0,1-1.81-2.35v-4.38h21.27v4.38a2.13,2.13,0,0,1-1.89,2.35h0l-.47.09-1.11.19-2.17.39V269h25.12v-15.7l-2.19-.39-1.11-.25h-.46a2.16,2.16,0,0,1-1.86-2.32v-4.38H452v4.38a2.13,2.13,0,0,1-1.84,2.32Z"/><path class="cls-2" d="M502.94,245.91V260h-4.26a1.58,1.58,0,0,1-1.72-1.45h0c-.11-.57-.28-2.16-.55-4.76H479.19v14.91h18.12v7.66H479.19v15.19h17.22c.27-2.61.44-4.19.55-4.78a1.57,1.57,0,0,1,1.72-1.38h4.26v14.12H463.52V295.1a2.14,2.14,0,0,1,1.85-2.33l.47-.08,1.11-.19,2.19-.4V253.25l-2.19-.39-1.09-.25h-.47a2.13,2.13,0,0,1-1.86-2.32v-4.38h39.41Z"/><path class="cls-2" d="M565,295.13v4.38H554.89a4.37,4.37,0,0,1-2.21-.52,4.43,4.43,0,0,1-1.46-1.46l-11.34-17.18a4.14,4.14,0,0,0-1.39-1.37,5.11,5.11,0,0,0-2.25-.4h-3.73v13.58l2.19.4,1.09.2.47.07a2.13,2.13,0,0,1,1.85,2.32v4.38H516.93v-4.38a2.14,2.14,0,0,1,1.85-2.32l.47-.07,1.11-.2,2.19-.4V253.25l-2.19-.39-1.11-.25h-.47a2.14,2.14,0,0,1-1.85-2.32v-4.38h21.43a34.55,34.55,0,0,1,9.39,1.12,17.91,17.91,0,0,1,6.41,3.17,12.08,12.08,0,0,1,3.66,4.88,16,16,0,0,1,1.17,6.23,16.26,16.26,0,0,1-.79,5.13,15,15,0,0,1-2.29,4.38,15.57,15.57,0,0,1-3.71,3.44,19.43,19.43,0,0,1-5,2.38,9.87,9.87,0,0,1,3.26,3.07l8.44,12.44,2.29.39,1.3.19.57.09A2.14,2.14,0,0,1,565,295.13Zm-18.39-26.39a7.85,7.85,0,0,0,2-2.92,10.13,10.13,0,0,0,.65-3.74,7.59,7.59,0,0,0-2.68-6.26c-1.8-1.46-4.53-2.17-8.21-2.17h-5.84V271.4h5.71a15.18,15.18,0,0,0,4.91-.72A9.3,9.3,0,0,0,546.57,268.74Z"/></g></g></svg>