<svg xmlns="http://www.w3.org/2000/svg" viewBox="0 0 824 824"><defs><style>.cls-1{fill:#7a4aeb;}.cls-2{fill:#343065;}</style></defs><title>testLogo</title><g id="Layer_1" data-name="Layer 1"><polyline class="cls-1" points="336.28 19.34 499.7 9.25 476.71 818.65 376.8 822.38"/><path class="cls-1" d="M-.24,411.85c0,227.54,184.46,412,412,412q-.7-120.9-1-241.78-.7-291.09,1-582.22C173,45.59-.24,224-.24,411.85Z"/><path class="cls-2" d="M411.76-.15a797.24,797.24,0,0,1,26,99.22c10.43,53.73,8.89,75.81,6,92a180.27,180.27,0,0,1-17,50c-43.25,90.46,48.25,224.12,33,390-4.33,47.15-16,95-16,95a664.89,664.89,0,0,1-32,97.78c226,0,412-186,412-412C823.76,184.3,639.3-.15,411.76-.15Z"/><path class="cls-2" d="M219,191V323.92H359.44V725.59h84.41V191Z"/><polygon class="cls-1" points="443.85 191.03 443.85 725.6 527.06 725.6 527.06 323.92 669 323.92 669 191.03 443.85 191.03"/></g></svg>