<svg xmlns="http://www.w3.org/2000/svg" viewBox="0 0 2440 1240"><defs><style>.cls-1{fill:none;stroke:#121212;stroke-miterlimit:10;stroke-width:40px;}</style></defs><title>tlWordMark</title><g id="Layer_4" data-name="Layer 4"><rect class="cls-1" x="20" y="20" width="2400" height="1200"/><path d="M685.46,462.44H620V404H826.29v58.43H760.83V627.55H685.46Z"/><path d="M1004.15,546.43v81.12H928.79V545.47L844.48,404H924l45.66,77.28,46-77.28h72.81Z"/><path d="M1130,404h75.36v165.1h100.91v58.44H1130Z"/><path d="M1544.75,570.7v56.85H1358.89V404H1540.6v56.84H1433V487h94.53v54.29H1433V570.7Z"/><path d="M1701.52,571.34h-20.44v56.21h-75.36V404h107.62c62.27,0,101.87,32.57,101.87,84.3,0,32.26-15.33,56.53-42.15,70.26l46.94,69h-80.47Zm7-109.21h-27.47V514.5h27.47c20.75,0,30.66-9.9,30.66-26.19S1729.3,462.13,1708.55,462.13Z"/><path d="M418.73,746.86h80.44V923.08H606.88v62.37H418.73Z"/><path d="M861.47,924.78v60.67H663.09V746.86H857v60.67H742.17v28H843.06v57.94H742.17v31.36Z"/><path d="M1161.73,746.86V985.45h-80.44V897.51H1007v87.94H926.54V746.86H1007v84.53h74.31V746.86Z"/><path d="M1336.89,925.46h-21.81v60h-80.44V746.86H1349.5c66.47,0,108.74,34.76,108.74,90,0,34.43-16.37,60.33-45,75l50.1,73.62h-85.89Zm7.5-116.57h-29.31v55.9h29.31c22.16,0,32.72-10.57,32.72-27.95S1366.55,808.89,1344.39,808.89Z"/><path d="M1721,924.78v60.67H1522.63V746.86h193.95v60.67H1601.71v28H1702.6v57.94H1601.71v31.36Z"/><path d="M2021.27,746.86V985.45h-66.13l-90.66-108.39V985.45h-78.4V746.86h66.12l90.67,108.38V746.86Z"/></g></svg>