<svg xmlns="http://www.w3.org/2000/svg" xmlns:xlink="http://www.w3.org/1999/xlink" viewBox="0 0 2496.16 909.74"><defs><style>.cls-1{fill:none;}.cls-2{clip-path:url(#clip-path);}.cls-3{clip-path:url(#clip-path-2);}.cls-4{clip-path:url(#clip-path-3);}</style><clipPath id="clip-path"><path class="cls-1" d="M824.4,701.74c-.52,50.6-.4,206.68-.4,206.68H409s-.81-155.83-.6-206.68c.6-149.32,93.12-208,208-208S826,545.42,824.4,701.74Z"/></clipPath><clipPath id="clip-path-2"><path class="cls-1" d="M2069,701.42c-.52,50.6,0,207,0,207L1658.38,908s-.81-155.83-.6-206.68c.6-149.32,93.12-208,208-208S2070.6,545.11,2069,701.42Z"/></clipPath><clipPath id="clip-path-3"><path class="cls-1" d="M1653.78,209.35c-.52,50.6-.4,206.68-.4,206.68h-415s.41-155.76.62-206.61c.6-149.31,91.9-208.07,206.78-208.07S1655.38,53,1653.78,209.35Z"/></clipPath></defs><title>tlWordMark</title><g id="Layer_12" data-name="Layer 12"><path d="M2496.16,908.48h-428l0-415,249,70.1.72-70.14h178.28Z"/><path d="M1662.16,908.48h-414v-414l196.35-.26c33.85,0,67,.83,94.73,3.26,57,5,90.47,33,109.15,63,11.93,19.16,13.77,52.23,13.77,69.72,0,0-2.54,29.22-7.62,42.11a131.64,131.64,0,0,1-21.76,36.24,163,163,0,0,1-33.38,30A166.81,166.81,0,0,1,1557,759.28Z"/><g class="cls-2"><path d="M824.4,773.89V909.74l-416,0v-416l416,0V722.6l-232,.46v51.25Z"/></g><g class="cls-3"><path d="M2073.78,773.5V909.35l-416,0v-416l416,0V722.21l-232,.46v51.25Z"/></g><path d="M1229.16,493.48v415h-170l1-135h-76v135h-162v-415h164l3,136h74l-3-136Z"/><polygon points="212 493.43 212.28 720.42 408 721.42 408 908.42 0 908.42 0 493.43 212 493.43"/><path d="M2066.38,416.48H1653.16l-1.47-415,197.55-.26c33.89,0,67,.83,94.83,3.27,57.09,5,90.55,33,109.26,63.06,11.94,19.17,13.78,52.28,13.78,69.79,0,0-2.54,29.25-7.63,42.14a131.52,131.52,0,0,1-21.78,36.28,163.31,163.31,0,0,1-33.41,30.06,167.29,167.29,0,0,1-42.48,20.73Z"/><g class="cls-4"><path d="M1653.78,281.5V417.35l-416,0V1.32l416,0V230.21l-232,.46v51.25Z"/></g><path d="M414,0V229.42L295,229V415.42H120v-187H1V.42Z"/><path d="M728.16,414.48h-189V229.27L415.16.48h415c-24.34,76.27-77.67,152.53-102,228.79Z"/><path d="M1042.16,1.48l.28,227,195.72,1v187h-408V1.48Z"/></g></svg>