<svg xmlns="http://www.w3.org/2000/svg" viewBox="0 0 3814.14 385.25"><defs><style>.cls-1{fill:#7a4aeb;}.cls-2{fill:#343065;}</style></defs><title>tlWordMark</title><g id="Layer_1" data-name="Layer 1"><path class="cls-1" d="M0,0H324.31V95.77H222V385.25H101.21V95.77H0Z"/><path class="cls-1" d="M329.72,0H467.94l61.49,136.58L590.91,0H727L588.74,268.26v117H467.94v-117Z"/><path class="cls-1" d="M874.92,0V293.84H991.36v91.41H754.12V0Z"/><path class="cls-1" d="M1286.26,96.31h-136v47.34h119.7v90.88h-119.7v54.41h136v96.31H1029.43V0h256.83Z"/><path class="cls-1" d="M1511.51,0c96.86,0,146.38,55.5,146.38,126.24,0,50.61-28.3,93.6-83.26,111.55l83.8,147.46H1525.66L1453.29,247h-.54V385.25H1332V0Zm-10.88,101.21h-47.88v65.3h47.88c22.85,0,34.82-9.79,34.82-32.65C1535.45,114.27,1523.48,101.21,1500.63,101.21Z"/><path class="cls-2" d="M1909.79,0V293.84h116.45v91.41H1789V0Z"/><path class="cls-2" d="M2321.13,96.31h-136v47.34h119.71v90.88H2185.1v54.41h136v96.31H2064.3V0h256.83Z"/><path class="cls-2" d="M2602.44,235.07H2487.62V385.25h-120.8V0h120.8V138.75h114.82V0h120.79V385.25H2602.44Z"/><path class="cls-2" d="M2957.17,0c96.86,0,146.38,55.5,146.38,126.24,0,50.61-28.3,93.6-83.26,111.55l83.8,147.46H2971.32L2899,247h-.54V385.25h-120.8V0Zm-10.88,101.21h-47.88v65.3h47.88c22.85,0,34.82-9.79,34.82-32.65C2981.11,114.27,2969.14,101.21,2946.29,101.21Z"/><path class="cls-2" d="M3399,96.31H3263v47.34h119.7v90.88H3263v54.41h136v96.31H3142.16V0H3399Z"/><path class="cls-2" d="M3814.14,0V385.25h-120.8L3565.47,191.54V385.25h-120.8V0h120.8l127.87,197V0Z"/></g></svg>